<svg xmlns="http://www.w3.org/2000/svg" version="1.1" xmlns:xlink="http://www.w3.org/1999/xlink" xmlns:svgjs="http://svgjs.com/svgjs" width="1000" height="1000"><rect width="1000" height="1000" rx="200" ry="200" fill="#000000"></rect><g transform="matrix(3.8431975403535743,0,0,3.8431975403535743,91.47528284493637,389.4174815482419)"><svg xmlns="http://www.w3.org/2000/svg" version="1.1" xmlns:xlink="http://www.w3.org/1999/xlink" xmlns:svgjs="http://svgjs.com/svgjs" width="208.16" height="59.22"><svg xmlns="http://www.w3.org/2000/svg" xmlns:xlink="http://www.w3.org/1999/xlink" zoomAndPan="magnify" preserveAspectRatio="xMidYMid meet" version="1.0" viewBox="85.07 159.31 208.16 59.22"><defs><g></g></defs><path stroke-linecap="butt" transform="matrix(0.751576, 0, 0, 0.75, 91.066859, 208.021628)" fill="none" stroke-linejoin="miter" d="M -0.000601762 6.002413 L 148.6921 6.002413 " stroke="#f7f3f5" stroke-width="12" stroke-opacity="1" stroke-miterlimit="4"></path><g fill="#f7f3f5" fill-opacity="1"><g transform="translate(91.066859, 195.260788)"><g><path d="M 18.921875 -9.359375 L 13.484375 -9.359375 L 13.484375 0 L 3.53125 0 L 3.53125 -35.234375 L 19.640625 -35.234375 C 22.828125 -35.234375 25.59375 -34.703125 27.9375 -33.640625 C 30.289062 -32.585938 32.101562 -31.078125 33.375 -29.109375 C 34.65625 -27.148438 35.296875 -24.847656 35.296875 -22.203125 C 35.296875 -19.648438 34.695312 -17.425781 33.5 -15.53125 C 32.3125 -13.632812 30.609375 -12.148438 28.390625 -11.078125 L 36 0 L 25.328125 0 Z M 25.21875 -22.203125 C 25.21875 -23.847656 24.695312 -25.125 23.65625 -26.03125 C 22.613281 -26.9375 21.070312 -27.390625 19.03125 -27.390625 L 13.484375 -27.390625 L 13.484375 -17.0625 L 19.03125 -17.0625 C 21.070312 -17.0625 22.613281 -17.503906 23.65625 -18.390625 C 24.695312 -19.285156 25.21875 -20.554688 25.21875 -22.203125 Z M 25.21875 -22.203125 "></path></g></g></g><g fill="#f7f3f5" fill-opacity="1"><g transform="translate(132.701523, 195.260788)"><g><path d="M 21.09375 0.703125 C 17.40625 0.703125 14.09375 -0.078125 11.15625 -1.640625 C 8.21875 -3.203125 5.910156 -5.375 4.234375 -8.15625 C 2.554688 -10.9375 1.71875 -14.09375 1.71875 -17.625 C 1.71875 -21.144531 2.554688 -24.296875 4.234375 -27.078125 C 5.910156 -29.867188 8.21875 -32.046875 11.15625 -33.609375 C 14.09375 -35.171875 17.40625 -35.953125 21.09375 -35.953125 C 24.3125 -35.953125 27.210938 -35.378906 29.796875 -34.234375 C 32.390625 -33.085938 34.539062 -31.441406 36.25 -29.296875 L 29.90625 -23.5625 C 27.625 -26.3125 24.851562 -27.6875 21.59375 -27.6875 C 19.6875 -27.6875 17.984375 -27.265625 16.484375 -26.421875 C 14.992188 -25.585938 13.835938 -24.40625 13.015625 -22.875 C 12.191406 -21.351562 11.78125 -19.601562 11.78125 -17.625 C 11.78125 -15.644531 12.191406 -13.890625 13.015625 -12.359375 C 13.835938 -10.828125 14.992188 -9.640625 16.484375 -8.796875 C 17.984375 -7.960938 19.6875 -7.546875 21.59375 -7.546875 C 24.851562 -7.546875 27.625 -8.925781 29.90625 -11.6875 L 36.25 -5.9375 C 34.539062 -3.789062 32.390625 -2.144531 29.796875 -1 C 27.210938 0.132812 24.3125 0.703125 21.09375 0.703125 Z M 21.09375 0.703125 "></path></g></g></g><g fill="#f7f3f5" fill-opacity="1"><g transform="translate(174.235503, 195.260788)"><g><path d="M 30.609375 -18.375 C 32.617188 -17.664062 34.191406 -16.566406 35.328125 -15.078125 C 36.472656 -13.585938 37.046875 -11.785156 37.046875 -9.671875 C 37.046875 -6.578125 35.804688 -4.191406 33.328125 -2.515625 C 30.847656 -0.835938 27.253906 0 22.546875 0 L 3.53125 0 L 3.53125 -35.234375 L 21.546875 -35.234375 C 26.046875 -35.234375 29.46875 -34.398438 31.8125 -32.734375 C 34.164062 -31.078125 35.34375 -28.84375 35.34375 -26.03125 C 35.34375 -24.351562 34.929688 -22.847656 34.109375 -21.515625 C 33.285156 -20.191406 32.117188 -19.144531 30.609375 -18.375 Z M 13.390625 -28.046875 L 13.390625 -21.25 L 20.234375 -21.25 C 23.585938 -21.25 25.265625 -22.390625 25.265625 -24.671875 C 25.265625 -26.921875 23.585938 -28.046875 20.234375 -28.046875 Z M 21.75 -7.203125 C 25.238281 -7.203125 26.984375 -8.394531 26.984375 -10.78125 C 26.984375 -13.15625 25.238281 -14.34375 21.75 -14.34375 L 13.390625 -14.34375 L 13.390625 -7.203125 Z M 21.75 -7.203125 "></path></g></g></g><g fill="#f7f3f5" fill-opacity="1"><g transform="translate(208.34378, 216.177348)"><g><path d="M 3.4375 0.09375 C 2.851562 0.09375 2.285156 0.00390625 1.734375 -0.171875 C 1.191406 -0.359375 0.765625 -0.597656 0.453125 -0.890625 L 0.875 -1.765625 C 1.164062 -1.492188 1.539062 -1.273438 2 -1.109375 C 2.46875 -0.941406 2.945312 -0.859375 3.4375 -0.859375 C 4.082031 -0.859375 4.566406 -0.96875 4.890625 -1.1875 C 5.210938 -1.40625 5.375 -1.695312 5.375 -2.0625 C 5.375 -2.332031 5.285156 -2.550781 5.109375 -2.71875 C 4.929688 -2.882812 4.710938 -3.007812 4.453125 -3.09375 C 4.203125 -3.1875 3.84375 -3.285156 3.375 -3.390625 C 2.789062 -3.535156 2.316406 -3.675781 1.953125 -3.8125 C 1.597656 -3.957031 1.289062 -4.175781 1.03125 -4.46875 C 0.769531 -4.757812 0.640625 -5.15625 0.640625 -5.65625 C 0.640625 -6.070312 0.75 -6.445312 0.96875 -6.78125 C 1.1875 -7.113281 1.519531 -7.378906 1.96875 -7.578125 C 2.414062 -7.785156 2.96875 -7.890625 3.625 -7.890625 C 4.09375 -7.890625 4.546875 -7.828125 4.984375 -7.703125 C 5.429688 -7.585938 5.816406 -7.421875 6.140625 -7.203125 L 5.765625 -6.3125 C 5.441406 -6.519531 5.09375 -6.675781 4.71875 -6.78125 C 4.351562 -6.882812 3.988281 -6.9375 3.625 -6.9375 C 3 -6.9375 2.523438 -6.820312 2.203125 -6.59375 C 1.890625 -6.363281 1.734375 -6.066406 1.734375 -5.703125 C 1.734375 -5.429688 1.820312 -5.210938 2 -5.046875 C 2.175781 -4.878906 2.394531 -4.75 2.65625 -4.65625 C 2.925781 -4.5625 3.289062 -4.460938 3.75 -4.359375 C 4.332031 -4.222656 4.800781 -4.082031 5.15625 -3.9375 C 5.507812 -3.800781 5.816406 -3.585938 6.078125 -3.296875 C 6.335938 -3.003906 6.46875 -2.613281 6.46875 -2.125 C 6.46875 -1.71875 6.351562 -1.34375 6.125 -1 C 5.90625 -0.664062 5.566406 -0.398438 5.109375 -0.203125 C 4.660156 -0.00390625 4.101562 0.09375 3.4375 0.09375 Z M 3.4375 0.09375 "></path></g></g></g><g fill="#f7f3f5" fill-opacity="1"><g transform="translate(218.028649, 216.177348)"><g><path d="M 4.6875 0.09375 C 3.90625 0.09375 3.195312 -0.078125 2.5625 -0.421875 C 1.925781 -0.773438 1.425781 -1.253906 1.0625 -1.859375 C 0.707031 -2.472656 0.53125 -3.15625 0.53125 -3.90625 C 0.53125 -4.65625 0.707031 -5.332031 1.0625 -5.9375 C 1.425781 -6.539062 1.925781 -7.015625 2.5625 -7.359375 C 3.195312 -7.710938 3.90625 -7.890625 4.6875 -7.890625 C 5.46875 -7.890625 6.171875 -7.710938 6.796875 -7.359375 C 7.429688 -7.015625 7.925781 -6.539062 8.28125 -5.9375 C 8.644531 -5.332031 8.828125 -4.65625 8.828125 -3.90625 C 8.828125 -3.144531 8.644531 -2.460938 8.28125 -1.859375 C 7.925781 -1.253906 7.429688 -0.773438 6.796875 -0.421875 C 6.171875 -0.078125 5.46875 0.09375 4.6875 0.09375 Z M 4.6875 -0.90625 C 5.257812 -0.90625 5.773438 -1.035156 6.234375 -1.296875 C 6.691406 -1.554688 7.050781 -1.910156 7.3125 -2.359375 C 7.570312 -2.816406 7.703125 -3.332031 7.703125 -3.90625 C 7.703125 -4.46875 7.570312 -4.972656 7.3125 -5.421875 C 7.050781 -5.878906 6.691406 -6.238281 6.234375 -6.5 C 5.773438 -6.757812 5.257812 -6.890625 4.6875 -6.890625 C 4.113281 -6.890625 3.59375 -6.757812 3.125 -6.5 C 2.664062 -6.238281 2.304688 -5.878906 2.046875 -5.421875 C 1.785156 -4.972656 1.65625 -4.46875 1.65625 -3.90625 C 1.65625 -3.332031 1.785156 -2.816406 2.046875 -2.359375 C 2.304688 -1.910156 2.664062 -1.554688 3.125 -1.296875 C 3.59375 -1.035156 4.113281 -0.90625 4.6875 -0.90625 Z M 4.6875 -0.90625 "></path></g></g></g><g fill="#f7f3f5" fill-opacity="1"><g transform="translate(230.154189, 216.177348)"><g><path d="M 2.28125 -6.828125 L 2.28125 -4.109375 L 6.1875 -4.109375 L 6.1875 -3.15625 L 2.28125 -3.15625 L 2.28125 0 L 1.171875 0 L 1.171875 -7.796875 L 6.671875 -7.796875 L 6.671875 -6.828125 Z M 2.28125 -6.828125 "></path></g></g></g><g fill="#f7f3f5" fill-opacity="1"><g transform="translate(239.995086, 216.177348)"><g><path d="M 2.71875 -6.828125 L 0.046875 -6.828125 L 0.046875 -7.796875 L 6.5 -7.796875 L 6.5 -6.828125 L 3.828125 -6.828125 L 3.828125 0 L 2.71875 0 Z M 2.71875 -6.828125 "></path></g></g></g><g fill="#f7f3f5" fill-opacity="1"><g transform="translate(249.301043, 216.177348)"><g><path d="M 12.1875 -7.796875 L 9.578125 0 L 8.40625 0 L 6.28125 -6.234375 L 4.15625 0 L 2.96875 0 L 0.359375 -7.796875 L 1.5 -7.796875 L 3.609375 -1.453125 L 5.796875 -7.796875 L 6.828125 -7.796875 L 8.984375 -1.421875 L 11.125 -7.796875 Z M 12.1875 -7.796875 "></path></g></g></g><g fill="#f7f3f5" fill-opacity="1"><g transform="translate(264.613923, 216.177348)"><g><path d="M 6.140625 -1.953125 L 2 -1.953125 L 1.140625 0 L -0.015625 0 L 3.515625 -7.796875 L 4.625 -7.796875 L 8.171875 0 L 7 0 Z M 5.75 -2.84375 L 4.0625 -6.65625 L 2.390625 -2.84375 Z M 5.75 -2.84375 "></path></g></g></g><g fill="#f7f3f5" fill-opacity="1"><g transform="translate(275.535843, 216.177348)"><g><path d="M 6.390625 0 L 4.703125 -2.390625 C 4.492188 -2.378906 4.332031 -2.375 4.21875 -2.375 L 2.28125 -2.375 L 2.28125 0 L 1.171875 0 L 1.171875 -7.796875 L 4.21875 -7.796875 C 5.21875 -7.796875 6.007812 -7.550781 6.59375 -7.0625 C 7.175781 -6.582031 7.46875 -5.921875 7.46875 -5.078125 C 7.46875 -4.472656 7.316406 -3.957031 7.015625 -3.53125 C 6.722656 -3.113281 6.300781 -2.8125 5.75 -2.625 L 7.59375 0 Z M 4.171875 -3.3125 C 4.878906 -3.3125 5.414062 -3.460938 5.78125 -3.765625 C 6.15625 -4.078125 6.34375 -4.515625 6.34375 -5.078125 C 6.34375 -5.640625 6.15625 -6.070312 5.78125 -6.375 C 5.414062 -6.675781 4.878906 -6.828125 4.171875 -6.828125 L 2.28125 -6.828125 L 2.28125 -3.3125 Z M 4.171875 -3.3125 "></path></g></g></g><g fill="#f7f3f5" fill-opacity="1"><g transform="translate(286.402042, 216.177348)"><g><path d="M 6.828125 -0.96875 L 6.828125 0 L 1.171875 0 L 1.171875 -7.796875 L 6.671875 -7.796875 L 6.671875 -6.828125 L 2.28125 -6.828125 L 2.28125 -4.4375 L 6.1875 -4.4375 L 6.1875 -3.484375 L 2.28125 -3.484375 L 2.28125 -0.96875 Z M 6.828125 -0.96875 "></path></g></g></g></svg></svg></g></svg>